# xmcd
#
# Track frame offsets: 
#        180
#        6603
#        23348
#        42212
#        67121
#        81276
#        100636
#        114135
#        137810
#        149682
#        167246
#        186937
#
# Disc length: 2623 seconds
#
# Revision: 6
# Processed by: cddbd v1.5.2PL0 Copyright (c) Steve Scherf et al.
# Submitted via: ExactAudioCopy v0.95b3
#
DISCID=a20a3d0c
DTITLE=Polluted Inheritance - Betrayed
DYEAR=1996
DGENRE=Technical Death Metal
TTITLE0=Intro
TTITLE1=Forgotten Cause
TTITLE2=Mental Connection
TTITLE3=Elimination
TTITLE4=Betrayed
TTITLE5=Emptiness
TTITLE6=Drowning (In Faith)
TTITLE7=Undulge
TTITLE8=Never to Be Free
TTITLE9=Need Me
TTITLE10=My Vioce
TTITLE11=Outro
EXTD=
EXTT0=
EXTT1=
EXTT2=
EXTT3=
EXTT4=
EXTT5=
EXTT6=
EXTT7=
EXTT8=
EXTT9=
EXTT10=
EXTT11=
PLAYORDER=
